<svg xmlns="http://www.w3.org/2000/svg" viewBox="0 0 64 64">
  <!-- Background -->
  <rect width="64" height="64" rx="8" fill="#0052cc"/>
  
  <!-- Title text -->
  <text x="32" y="10" font-family="Arial" font-size="8" fill="white" text-anchor="middle" font-weight="bold">GAD</text>
  
  <!-- Left Storage -->
  <rect x="4" y="12" width="22" height="40" rx="2" fill="white"/>
  <rect x="7" y="16" width="16" height="2" fill="#0052cc"/>
  <rect x="7" y="20" width="16" height="2" fill="#0052cc"/>
  <rect x="7" y="24" width="16" height="2" fill="#0052cc"/>
  
  <!-- Right Storage -->
  <rect x="38" y="12" width="22" height="40" rx="2" fill="white"/>
  <rect x="41" y="16" width="16" height="2" fill="#0052cc"/>
  <rect x="41" y="20" width="16" height="2" fill="#0052cc"/>
  <rect x="41" y="24" width="16" height="2" fill="#0052cc"/>
  
  <!-- Center Circle -->
  <circle cx="32" cy="32" r="12" fill="white"/>
  
  <!-- Top Arrow -->
  <path d="M24 28 L35 28 A3 3 0 0 1 35 33" stroke="#0052cc" stroke-width="3" fill="none"/>
  <path d="M21 28 L25 26 L25 30 Z" fill="#0052cc"/>
  
  <!-- Bottom Arrow -->
  <path d="M40 36 L29 36 A3 3 0 0 1 29 31" stroke="#0052cc" stroke-width="3" fill="none"/>
  <path d="M43 36 L39 38 L39 34 Z" fill="#0052cc"/>
  
  <!-- Play Button -->
  <circle cx="15" cy="44" r="8" fill="#0052cc"/>
  <path d="M12 40 L12 48 L19 44 Z" fill="white"/>
  
  <!-- Pause Button -->
  <circle cx="49" cy="44" r="8" fill="#0052cc"/>
  <rect x="46" y="40" width="2.5" height="8" rx="1" fill="white"/>
  <rect x="50" y="40" width="2.5" height="8" rx="1" fill="white"/>
  
  <!-- Bottom text -->
  <text x="32" y="60" font-family="Arial" font-size="8" fill="white" text-anchor="middle" font-weight="bold">MANAGER</text>
</svg>
